<mxfile host="app.diagrams.net" modified="2023-02-28T22:20:21.653Z" agent="5.0 (Windows NT 10.0; Win64; x64) AppleWebKit/537.36 (KHTML, like Gecko) Chrome/110.0.0.0 Safari/537.36" etag="6jqf98M2ql3N__21nPVw" version="20.8.20" type="github">
  <diagram name="Page-1" id="CPpZzWBiEkZ7hRYgQkvV">
    <mxGraphModel dx="1674" dy="1896" grid="1" gridSize="10" guides="1" tooltips="1" connect="1" arrows="1" fold="1" page="1" pageScale="1" pageWidth="850" pageHeight="1100" math="0" shadow="0">
      <root>
        <mxCell id="0" />
        <mxCell id="1" parent="0" />
        <mxCell id="5eavc-3VvFE7wKWaDWgl-7" value="" style="rounded=1;arcSize=10;dashed=0;fillColor=none;gradientColor=none;strokeWidth=2;" parent="1" vertex="1">
          <mxGeometry x="40" y="-190" width="1000" height="670" as="geometry" />
        </mxCell>
        <mxCell id="5eavc-3VvFE7wKWaDWgl-65" value="" style="edgeStyle=orthogonalEdgeStyle;rounded=0;orthogonalLoop=1;jettySize=auto;html=1;" parent="1" source="5eavc-3VvFE7wKWaDWgl-9" target="5eavc-3VvFE7wKWaDWgl-28" edge="1">
          <mxGeometry relative="1" as="geometry" />
        </mxCell>
        <mxCell id="5eavc-3VvFE7wKWaDWgl-9" value="" style="rounded=1;arcSize=10;dashed=0;fillColor=none;gradientColor=none;strokeWidth=2;" parent="1" vertex="1">
          <mxGeometry x="80" width="280" height="320" as="geometry" />
        </mxCell>
        <mxCell id="5eavc-3VvFE7wKWaDWgl-8" value="" style="dashed=0;html=1;shape=mxgraph.aws3.cloud;fillColor=#F58536;gradientColor=none;dashed=0;" parent="1" vertex="1">
          <mxGeometry x="80" y="-210" width="52" height="36" as="geometry" />
        </mxCell>
        <mxCell id="5eavc-3VvFE7wKWaDWgl-21" value="" style="group" parent="1" vertex="1" connectable="0">
          <mxGeometry x="180" y="20" width="80" height="105" as="geometry" />
        </mxCell>
        <mxCell id="5eavc-3VvFE7wKWaDWgl-16" value="" style="outlineConnect=0;dashed=0;verticalLabelPosition=bottom;verticalAlign=top;align=center;html=1;shape=mxgraph.aws3.classic_load_balancer;fillColor=#F58536;gradientColor=none;" parent="5eavc-3VvFE7wKWaDWgl-21" vertex="1">
          <mxGeometry x="5.5" width="69" height="72" as="geometry" />
        </mxCell>
        <mxCell id="5eavc-3VvFE7wKWaDWgl-20" value="Elastic Load Balancer" style="text;html=1;strokeColor=none;fillColor=none;align=center;verticalAlign=middle;whiteSpace=wrap;rounded=0;" parent="5eavc-3VvFE7wKWaDWgl-21" vertex="1">
          <mxGeometry y="75" width="80" height="30" as="geometry" />
        </mxCell>
        <mxCell id="5eavc-3VvFE7wKWaDWgl-23" value="" style="group" parent="1" vertex="1" connectable="0">
          <mxGeometry x="100" y="160" width="240" height="130" as="geometry" />
        </mxCell>
        <mxCell id="5eavc-3VvFE7wKWaDWgl-11" value="" style="rounded=1;arcSize=10;dashed=1;fillColor=none;gradientColor=none;dashPattern=8 3 1 3;strokeWidth=2;" parent="5eavc-3VvFE7wKWaDWgl-23" vertex="1">
          <mxGeometry width="240" height="130" as="geometry" />
        </mxCell>
        <mxCell id="5eavc-3VvFE7wKWaDWgl-24" value="" style="group" parent="5eavc-3VvFE7wKWaDWgl-23" vertex="1" connectable="0">
          <mxGeometry x="10" y="30" width="210" height="100" as="geometry" />
        </mxCell>
        <mxCell id="5eavc-3VvFE7wKWaDWgl-17" value="" style="outlineConnect=0;dashed=0;verticalLabelPosition=bottom;verticalAlign=top;align=center;html=1;shape=mxgraph.aws3.instance;fillColor=#F58534;gradientColor=none;" parent="5eavc-3VvFE7wKWaDWgl-24" vertex="1">
          <mxGeometry width="60" height="63" as="geometry" />
        </mxCell>
        <mxCell id="5eavc-3VvFE7wKWaDWgl-22" value="Auto Scaling Group" style="text;html=1;strokeColor=none;fillColor=none;align=center;verticalAlign=middle;whiteSpace=wrap;rounded=0;" parent="5eavc-3VvFE7wKWaDWgl-24" vertex="1">
          <mxGeometry x="45" y="70" width="120" height="30" as="geometry" />
        </mxCell>
        <mxCell id="5eavc-3VvFE7wKWaDWgl-19" value="" style="outlineConnect=0;dashed=0;verticalLabelPosition=bottom;verticalAlign=top;align=center;html=1;shape=mxgraph.aws3.instance;fillColor=#F58534;gradientColor=none;" parent="5eavc-3VvFE7wKWaDWgl-23" vertex="1">
          <mxGeometry x="170" y="30" width="60" height="63" as="geometry" />
        </mxCell>
        <mxCell id="5eavc-3VvFE7wKWaDWgl-18" value="" style="outlineConnect=0;dashed=0;verticalLabelPosition=bottom;verticalAlign=top;align=center;html=1;shape=mxgraph.aws3.instance;fillColor=#F58534;gradientColor=none;" parent="5eavc-3VvFE7wKWaDWgl-23" vertex="1">
          <mxGeometry x="90" y="30" width="60" height="63" as="geometry" />
        </mxCell>
        <mxCell id="5eavc-3VvFE7wKWaDWgl-30" value="" style="group" parent="1" vertex="1" connectable="0">
          <mxGeometry x="181" y="360" width="78" height="110" as="geometry" />
        </mxCell>
        <mxCell id="5eavc-3VvFE7wKWaDWgl-28" value="" style="sketch=0;points=[[0,0,0],[0.25,0,0],[0.5,0,0],[0.75,0,0],[1,0,0],[0,1,0],[0.25,1,0],[0.5,1,0],[0.75,1,0],[1,1,0],[0,0.25,0],[0,0.5,0],[0,0.75,0],[1,0.25,0],[1,0.5,0],[1,0.75,0]];outlineConnect=0;fontColor=#232F3E;gradientColor=#4D72F3;gradientDirection=north;fillColor=#3334B9;strokeColor=#ffffff;dashed=0;verticalLabelPosition=bottom;verticalAlign=top;align=center;html=1;fontSize=12;fontStyle=0;aspect=fixed;shape=mxgraph.aws4.resourceIcon;resIcon=mxgraph.aws4.rds;" parent="5eavc-3VvFE7wKWaDWgl-30" vertex="1">
          <mxGeometry width="78" height="78" as="geometry" />
        </mxCell>
        <mxCell id="5eavc-3VvFE7wKWaDWgl-29" value="RDS SQL Server" style="text;html=1;strokeColor=none;fillColor=none;align=center;verticalAlign=middle;whiteSpace=wrap;rounded=0;" parent="5eavc-3VvFE7wKWaDWgl-30" vertex="1">
          <mxGeometry x="9" y="80" width="60" height="30" as="geometry" />
        </mxCell>
        <mxCell id="5eavc-3VvFE7wKWaDWgl-32" value="" style="group" parent="1" vertex="1" connectable="0">
          <mxGeometry x="190" y="-290" width="60" height="80" as="geometry" />
        </mxCell>
        <mxCell id="5eavc-3VvFE7wKWaDWgl-5" value="" style="points=[[0.35,0,0],[0.98,0.51,0],[1,0.71,0],[0.67,1,0],[0,0.795,0],[0,0.65,0]];verticalLabelPosition=bottom;sketch=0;html=1;verticalAlign=top;aspect=fixed;align=center;pointerEvents=1;shape=mxgraph.cisco19.user;fillColor=#005073;strokeColor=none;" parent="5eavc-3VvFE7wKWaDWgl-32" vertex="1">
          <mxGeometry x="10" width="50" height="50" as="geometry" />
        </mxCell>
        <mxCell id="5eavc-3VvFE7wKWaDWgl-31" value="User" style="text;html=1;strokeColor=none;fillColor=none;align=center;verticalAlign=middle;whiteSpace=wrap;rounded=0;" parent="5eavc-3VvFE7wKWaDWgl-32" vertex="1">
          <mxGeometry y="50" width="60" height="30" as="geometry" />
        </mxCell>
        <mxCell id="5eavc-3VvFE7wKWaDWgl-33" value="" style="edgeStyle=orthogonalEdgeStyle;rounded=0;orthogonalLoop=1;jettySize=auto;html=1;" parent="1" source="5eavc-3VvFE7wKWaDWgl-31" target="5eavc-3VvFE7wKWaDWgl-16" edge="1">
          <mxGeometry relative="1" as="geometry" />
        </mxCell>
        <mxCell id="5eavc-3VvFE7wKWaDWgl-64" value="" style="edgeStyle=orthogonalEdgeStyle;rounded=0;orthogonalLoop=1;jettySize=auto;html=1;" parent="1" source="5eavc-3VvFE7wKWaDWgl-38" edge="1">
          <mxGeometry relative="1" as="geometry">
            <mxPoint x="540" y="360" as="targetPoint" />
          </mxGeometry>
        </mxCell>
        <mxCell id="5eavc-3VvFE7wKWaDWgl-38" value="" style="rounded=1;arcSize=10;dashed=0;fillColor=none;gradientColor=none;strokeWidth=2;" parent="1" vertex="1">
          <mxGeometry x="400" width="280" height="320" as="geometry" />
        </mxCell>
        <mxCell id="5eavc-3VvFE7wKWaDWgl-39" value="" style="group" parent="1" vertex="1" connectable="0">
          <mxGeometry x="500" y="20" width="80" height="105" as="geometry" />
        </mxCell>
        <mxCell id="5eavc-3VvFE7wKWaDWgl-40" value="" style="outlineConnect=0;dashed=0;verticalLabelPosition=bottom;verticalAlign=top;align=center;html=1;shape=mxgraph.aws3.classic_load_balancer;fillColor=#F58536;gradientColor=none;" parent="5eavc-3VvFE7wKWaDWgl-39" vertex="1">
          <mxGeometry x="5.5" width="69" height="72" as="geometry" />
        </mxCell>
        <mxCell id="5eavc-3VvFE7wKWaDWgl-41" value="Elastic Load Balancer" style="text;html=1;strokeColor=none;fillColor=none;align=center;verticalAlign=middle;whiteSpace=wrap;rounded=0;" parent="5eavc-3VvFE7wKWaDWgl-39" vertex="1">
          <mxGeometry y="75" width="80" height="30" as="geometry" />
        </mxCell>
        <mxCell id="5eavc-3VvFE7wKWaDWgl-42" value="" style="group" parent="1" vertex="1" connectable="0">
          <mxGeometry x="420" y="160" width="240" height="130" as="geometry" />
        </mxCell>
        <mxCell id="5eavc-3VvFE7wKWaDWgl-43" value="" style="rounded=1;arcSize=10;dashed=1;fillColor=none;gradientColor=none;dashPattern=8 3 1 3;strokeWidth=2;" parent="5eavc-3VvFE7wKWaDWgl-42" vertex="1">
          <mxGeometry width="240" height="130" as="geometry" />
        </mxCell>
        <mxCell id="5eavc-3VvFE7wKWaDWgl-44" value="" style="group" parent="5eavc-3VvFE7wKWaDWgl-42" vertex="1" connectable="0">
          <mxGeometry x="10" y="30" width="210" height="100" as="geometry" />
        </mxCell>
        <mxCell id="5eavc-3VvFE7wKWaDWgl-45" value="" style="outlineConnect=0;dashed=0;verticalLabelPosition=bottom;verticalAlign=top;align=center;html=1;shape=mxgraph.aws3.instance;fillColor=#F58534;gradientColor=none;" parent="5eavc-3VvFE7wKWaDWgl-44" vertex="1">
          <mxGeometry width="60" height="63" as="geometry" />
        </mxCell>
        <mxCell id="5eavc-3VvFE7wKWaDWgl-46" value="Auto Scaling Group" style="text;html=1;strokeColor=none;fillColor=none;align=center;verticalAlign=middle;whiteSpace=wrap;rounded=0;" parent="5eavc-3VvFE7wKWaDWgl-44" vertex="1">
          <mxGeometry x="45" y="70" width="120" height="30" as="geometry" />
        </mxCell>
        <mxCell id="5eavc-3VvFE7wKWaDWgl-47" value="" style="outlineConnect=0;dashed=0;verticalLabelPosition=bottom;verticalAlign=top;align=center;html=1;shape=mxgraph.aws3.instance;fillColor=#F58534;gradientColor=none;" parent="5eavc-3VvFE7wKWaDWgl-42" vertex="1">
          <mxGeometry x="170" y="30" width="60" height="63" as="geometry" />
        </mxCell>
        <mxCell id="5eavc-3VvFE7wKWaDWgl-48" value="" style="outlineConnect=0;dashed=0;verticalLabelPosition=bottom;verticalAlign=top;align=center;html=1;shape=mxgraph.aws3.instance;fillColor=#F58534;gradientColor=none;" parent="5eavc-3VvFE7wKWaDWgl-42" vertex="1">
          <mxGeometry x="90" y="30" width="60" height="63" as="geometry" />
        </mxCell>
        <mxCell id="5eavc-3VvFE7wKWaDWgl-63" value="" style="edgeStyle=orthogonalEdgeStyle;rounded=0;orthogonalLoop=1;jettySize=auto;html=1;" parent="1" source="5eavc-3VvFE7wKWaDWgl-51" edge="1">
          <mxGeometry relative="1" as="geometry">
            <mxPoint x="860" y="360" as="targetPoint" />
          </mxGeometry>
        </mxCell>
        <mxCell id="5eavc-3VvFE7wKWaDWgl-51" value="" style="rounded=1;arcSize=10;dashed=0;fillColor=none;gradientColor=none;strokeWidth=2;" parent="1" vertex="1">
          <mxGeometry x="720" width="280" height="320" as="geometry" />
        </mxCell>
        <mxCell id="5eavc-3VvFE7wKWaDWgl-52" value="" style="group" parent="1" vertex="1" connectable="0">
          <mxGeometry x="820" y="20" width="80" height="105" as="geometry" />
        </mxCell>
        <mxCell id="5eavc-3VvFE7wKWaDWgl-53" value="" style="outlineConnect=0;dashed=0;verticalLabelPosition=bottom;verticalAlign=top;align=center;html=1;shape=mxgraph.aws3.classic_load_balancer;fillColor=#F58536;gradientColor=none;" parent="5eavc-3VvFE7wKWaDWgl-52" vertex="1">
          <mxGeometry x="5.5" width="69" height="72" as="geometry" />
        </mxCell>
        <mxCell id="5eavc-3VvFE7wKWaDWgl-54" value="Elastic Load Balancer" style="text;html=1;strokeColor=none;fillColor=none;align=center;verticalAlign=middle;whiteSpace=wrap;rounded=0;" parent="5eavc-3VvFE7wKWaDWgl-52" vertex="1">
          <mxGeometry y="75" width="80" height="30" as="geometry" />
        </mxCell>
        <mxCell id="5eavc-3VvFE7wKWaDWgl-55" value="" style="group" parent="1" vertex="1" connectable="0">
          <mxGeometry x="740" y="160" width="240" height="130" as="geometry" />
        </mxCell>
        <mxCell id="5eavc-3VvFE7wKWaDWgl-56" value="" style="rounded=1;arcSize=10;dashed=1;fillColor=none;gradientColor=none;dashPattern=8 3 1 3;strokeWidth=2;" parent="5eavc-3VvFE7wKWaDWgl-55" vertex="1">
          <mxGeometry width="240" height="130" as="geometry" />
        </mxCell>
        <mxCell id="5eavc-3VvFE7wKWaDWgl-57" value="" style="group" parent="5eavc-3VvFE7wKWaDWgl-55" vertex="1" connectable="0">
          <mxGeometry x="10" y="30" width="210" height="100" as="geometry" />
        </mxCell>
        <mxCell id="5eavc-3VvFE7wKWaDWgl-58" value="" style="outlineConnect=0;dashed=0;verticalLabelPosition=bottom;verticalAlign=top;align=center;html=1;shape=mxgraph.aws3.instance;fillColor=#F58534;gradientColor=none;" parent="5eavc-3VvFE7wKWaDWgl-57" vertex="1">
          <mxGeometry width="60" height="63" as="geometry" />
        </mxCell>
        <mxCell id="5eavc-3VvFE7wKWaDWgl-59" value="Auto Scaling Group" style="text;html=1;strokeColor=none;fillColor=none;align=center;verticalAlign=middle;whiteSpace=wrap;rounded=0;" parent="5eavc-3VvFE7wKWaDWgl-57" vertex="1">
          <mxGeometry x="45" y="70" width="120" height="30" as="geometry" />
        </mxCell>
        <mxCell id="5eavc-3VvFE7wKWaDWgl-60" value="" style="outlineConnect=0;dashed=0;verticalLabelPosition=bottom;verticalAlign=top;align=center;html=1;shape=mxgraph.aws3.instance;fillColor=#F58534;gradientColor=none;" parent="5eavc-3VvFE7wKWaDWgl-55" vertex="1">
          <mxGeometry x="170" y="30" width="60" height="63" as="geometry" />
        </mxCell>
        <mxCell id="5eavc-3VvFE7wKWaDWgl-61" value="" style="outlineConnect=0;dashed=0;verticalLabelPosition=bottom;verticalAlign=top;align=center;html=1;shape=mxgraph.aws3.instance;fillColor=#F58534;gradientColor=none;" parent="5eavc-3VvFE7wKWaDWgl-55" vertex="1">
          <mxGeometry x="90" y="30" width="60" height="63" as="geometry" />
        </mxCell>
        <mxCell id="5eavc-3VvFE7wKWaDWgl-66" value="" style="group" parent="1" vertex="1" connectable="0">
          <mxGeometry x="502" y="360" width="78" height="110" as="geometry" />
        </mxCell>
        <mxCell id="5eavc-3VvFE7wKWaDWgl-67" value="" style="sketch=0;points=[[0,0,0],[0.25,0,0],[0.5,0,0],[0.75,0,0],[1,0,0],[0,1,0],[0.25,1,0],[0.5,1,0],[0.75,1,0],[1,1,0],[0,0.25,0],[0,0.5,0],[0,0.75,0],[1,0.25,0],[1,0.5,0],[1,0.75,0]];outlineConnect=0;fontColor=#232F3E;gradientColor=#4D72F3;gradientDirection=north;fillColor=#3334B9;strokeColor=#ffffff;dashed=0;verticalLabelPosition=bottom;verticalAlign=top;align=center;html=1;fontSize=12;fontStyle=0;aspect=fixed;shape=mxgraph.aws4.resourceIcon;resIcon=mxgraph.aws4.rds;" parent="5eavc-3VvFE7wKWaDWgl-66" vertex="1">
          <mxGeometry width="78" height="78" as="geometry" />
        </mxCell>
        <mxCell id="5eavc-3VvFE7wKWaDWgl-68" value="RDS SQL Server" style="text;html=1;strokeColor=none;fillColor=none;align=center;verticalAlign=middle;whiteSpace=wrap;rounded=0;" parent="5eavc-3VvFE7wKWaDWgl-66" vertex="1">
          <mxGeometry x="9" y="80" width="60" height="30" as="geometry" />
        </mxCell>
        <mxCell id="5eavc-3VvFE7wKWaDWgl-69" value="" style="group" parent="1" vertex="1" connectable="0">
          <mxGeometry x="821" y="360" width="78" height="110" as="geometry" />
        </mxCell>
        <mxCell id="5eavc-3VvFE7wKWaDWgl-70" value="" style="sketch=0;points=[[0,0,0],[0.25,0,0],[0.5,0,0],[0.75,0,0],[1,0,0],[0,1,0],[0.25,1,0],[0.5,1,0],[0.75,1,0],[1,1,0],[0,0.25,0],[0,0.5,0],[0,0.75,0],[1,0.25,0],[1,0.5,0],[1,0.75,0]];outlineConnect=0;fontColor=#232F3E;gradientColor=#4D72F3;gradientDirection=north;fillColor=#3334B9;strokeColor=#ffffff;dashed=0;verticalLabelPosition=bottom;verticalAlign=top;align=center;html=1;fontSize=12;fontStyle=0;aspect=fixed;shape=mxgraph.aws4.resourceIcon;resIcon=mxgraph.aws4.rds;" parent="5eavc-3VvFE7wKWaDWgl-69" vertex="1">
          <mxGeometry width="78" height="78" as="geometry" />
        </mxCell>
        <mxCell id="5eavc-3VvFE7wKWaDWgl-71" value="RDS SQL Server" style="text;html=1;strokeColor=none;fillColor=none;align=center;verticalAlign=middle;whiteSpace=wrap;rounded=0;" parent="5eavc-3VvFE7wKWaDWgl-69" vertex="1">
          <mxGeometry x="9" y="80" width="60" height="30" as="geometry" />
        </mxCell>
        <mxCell id="5eavc-3VvFE7wKWaDWgl-72" value="" style="edgeStyle=orthogonalEdgeStyle;rounded=0;orthogonalLoop=1;jettySize=auto;html=1;" parent="1" source="5eavc-3VvFE7wKWaDWgl-54" edge="1">
          <mxGeometry relative="1" as="geometry">
            <mxPoint x="860" y="160" as="targetPoint" />
          </mxGeometry>
        </mxCell>
        <mxCell id="5eavc-3VvFE7wKWaDWgl-73" value="" style="edgeStyle=orthogonalEdgeStyle;rounded=0;orthogonalLoop=1;jettySize=auto;html=1;" parent="1" source="5eavc-3VvFE7wKWaDWgl-41" edge="1">
          <mxGeometry relative="1" as="geometry">
            <mxPoint x="540" y="160" as="targetPoint" />
          </mxGeometry>
        </mxCell>
        <mxCell id="5eavc-3VvFE7wKWaDWgl-74" value="" style="edgeStyle=orthogonalEdgeStyle;rounded=0;orthogonalLoop=1;jettySize=auto;html=1;" parent="1" source="5eavc-3VvFE7wKWaDWgl-20" edge="1">
          <mxGeometry relative="1" as="geometry">
            <mxPoint x="220" y="160" as="targetPoint" />
          </mxGeometry>
        </mxCell>
        <mxCell id="5eavc-3VvFE7wKWaDWgl-75" value="" style="group" parent="1" vertex="1" connectable="0">
          <mxGeometry x="510" y="-290" width="60" height="80" as="geometry" />
        </mxCell>
        <mxCell id="5eavc-3VvFE7wKWaDWgl-76" value="" style="points=[[0.35,0,0],[0.98,0.51,0],[1,0.71,0],[0.67,1,0],[0,0.795,0],[0,0.65,0]];verticalLabelPosition=bottom;sketch=0;html=1;verticalAlign=top;aspect=fixed;align=center;pointerEvents=1;shape=mxgraph.cisco19.user;fillColor=#005073;strokeColor=none;" parent="5eavc-3VvFE7wKWaDWgl-75" vertex="1">
          <mxGeometry x="10" width="50" height="50" as="geometry" />
        </mxCell>
        <mxCell id="5eavc-3VvFE7wKWaDWgl-77" value="User" style="text;html=1;strokeColor=none;fillColor=none;align=center;verticalAlign=middle;whiteSpace=wrap;rounded=0;" parent="5eavc-3VvFE7wKWaDWgl-75" vertex="1">
          <mxGeometry y="50" width="60" height="30" as="geometry" />
        </mxCell>
        <mxCell id="5eavc-3VvFE7wKWaDWgl-78" value="" style="group" parent="1" vertex="1" connectable="0">
          <mxGeometry x="830" y="-290" width="60" height="80" as="geometry" />
        </mxCell>
        <mxCell id="5eavc-3VvFE7wKWaDWgl-79" value="" style="points=[[0.35,0,0],[0.98,0.51,0],[1,0.71,0],[0.67,1,0],[0,0.795,0],[0,0.65,0]];verticalLabelPosition=bottom;sketch=0;html=1;verticalAlign=top;aspect=fixed;align=center;pointerEvents=1;shape=mxgraph.cisco19.user;fillColor=#005073;strokeColor=none;" parent="5eavc-3VvFE7wKWaDWgl-78" vertex="1">
          <mxGeometry x="10" width="50" height="50" as="geometry" />
        </mxCell>
        <mxCell id="5eavc-3VvFE7wKWaDWgl-80" value="User" style="text;html=1;strokeColor=none;fillColor=none;align=center;verticalAlign=middle;whiteSpace=wrap;rounded=0;" parent="5eavc-3VvFE7wKWaDWgl-78" vertex="1">
          <mxGeometry y="50" width="60" height="30" as="geometry" />
        </mxCell>
        <mxCell id="5eavc-3VvFE7wKWaDWgl-81" value="" style="edgeStyle=orthogonalEdgeStyle;rounded=0;orthogonalLoop=1;jettySize=auto;html=1;" parent="1" source="5eavc-3VvFE7wKWaDWgl-80" target="5eavc-3VvFE7wKWaDWgl-53" edge="1">
          <mxGeometry relative="1" as="geometry" />
        </mxCell>
        <mxCell id="5eavc-3VvFE7wKWaDWgl-82" value="" style="edgeStyle=orthogonalEdgeStyle;rounded=0;orthogonalLoop=1;jettySize=auto;html=1;" parent="1" source="5eavc-3VvFE7wKWaDWgl-77" target="5eavc-3VvFE7wKWaDWgl-40" edge="1">
          <mxGeometry relative="1" as="geometry" />
        </mxCell>
        <mxCell id="5d1QXkMo-2o8rOj9yPih-1" value="" style="sketch=0;points=[[0,0,0],[0.25,0,0],[0.5,0,0],[0.75,0,0],[1,0,0],[0,1,0],[0.25,1,0],[0.5,1,0],[0.75,1,0],[1,1,0],[0,0.25,0],[0,0.5,0],[0,0.75,0],[1,0.25,0],[1,0.5,0],[1,0.75,0]];outlineConnect=0;fontColor=#232F3E;gradientColor=#F78E04;gradientDirection=north;fillColor=#D05C17;strokeColor=#ffffff;dashed=0;verticalLabelPosition=bottom;verticalAlign=top;align=center;html=1;fontSize=12;fontStyle=0;aspect=fixed;shape=mxgraph.aws4.resourceIcon;resIcon=mxgraph.aws4.ecs;" vertex="1" parent="1">
          <mxGeometry x="94" y="-18" width="38" height="38" as="geometry" />
        </mxCell>
        <mxCell id="5d1QXkMo-2o8rOj9yPih-2" value="" style="sketch=0;points=[[0,0,0],[0.25,0,0],[0.5,0,0],[0.75,0,0],[1,0,0],[0,1,0],[0.25,1,0],[0.5,1,0],[0.75,1,0],[1,1,0],[0,0.25,0],[0,0.5,0],[0,0.75,0],[1,0.25,0],[1,0.5,0],[1,0.75,0]];outlineConnect=0;fontColor=#232F3E;gradientColor=#F78E04;gradientDirection=north;fillColor=#D05C17;strokeColor=#ffffff;dashed=0;verticalLabelPosition=bottom;verticalAlign=top;align=center;html=1;fontSize=12;fontStyle=0;aspect=fixed;shape=mxgraph.aws4.resourceIcon;resIcon=mxgraph.aws4.ecs;" vertex="1" parent="1">
          <mxGeometry x="420" y="-18" width="38" height="38" as="geometry" />
        </mxCell>
        <mxCell id="5d1QXkMo-2o8rOj9yPih-3" value="" style="sketch=0;points=[[0,0,0],[0.25,0,0],[0.5,0,0],[0.75,0,0],[1,0,0],[0,1,0],[0.25,1,0],[0.5,1,0],[0.75,1,0],[1,1,0],[0,0.25,0],[0,0.5,0],[0,0.75,0],[1,0.25,0],[1,0.5,0],[1,0.75,0]];outlineConnect=0;fontColor=#232F3E;gradientColor=#F78E04;gradientDirection=north;fillColor=#D05C17;strokeColor=#ffffff;dashed=0;verticalLabelPosition=bottom;verticalAlign=top;align=center;html=1;fontSize=12;fontStyle=0;aspect=fixed;shape=mxgraph.aws4.resourceIcon;resIcon=mxgraph.aws4.ecs;" vertex="1" parent="1">
          <mxGeometry x="740" y="-18" width="38" height="38" as="geometry" />
        </mxCell>
        <mxCell id="5d1QXkMo-2o8rOj9yPih-4" value="" style="sketch=0;points=[[0,0,0],[0.25,0,0],[0.5,0,0],[0.75,0,0],[1,0,0],[0,1,0],[0.25,1,0],[0.5,1,0],[0.75,1,0],[1,1,0],[0,0.25,0],[0,0.5,0],[0,0.75,0],[1,0.25,0],[1,0.5,0],[1,0.75,0]];outlineConnect=0;fontColor=#232F3E;gradientColor=#945DF2;gradientDirection=north;fillColor=#5A30B5;strokeColor=#ffffff;dashed=0;verticalLabelPosition=bottom;verticalAlign=top;align=center;html=1;fontSize=12;fontStyle=0;aspect=fixed;shape=mxgraph.aws4.resourceIcon;resIcon=mxgraph.aws4.cloudfront;" vertex="1" parent="1">
          <mxGeometry x="630" y="-130" width="78" height="78" as="geometry" />
        </mxCell>
        <mxCell id="5d1QXkMo-2o8rOj9yPih-5" value="" style="sketch=0;points=[[0,0,0],[0.25,0,0],[0.5,0,0],[0.75,0,0],[1,0,0],[0,1,0],[0.25,1,0],[0.5,1,0],[0.75,1,0],[1,1,0],[0,0.25,0],[0,0.5,0],[0,0.75,0],[1,0.25,0],[1,0.5,0],[1,0.75,0]];outlineConnect=0;fontColor=#232F3E;gradientColor=#60A337;gradientDirection=north;fillColor=#277116;strokeColor=#ffffff;dashed=0;verticalLabelPosition=bottom;verticalAlign=top;align=center;html=1;fontSize=12;fontStyle=0;aspect=fixed;shape=mxgraph.aws4.resourceIcon;resIcon=mxgraph.aws4.s3;" vertex="1" parent="1">
          <mxGeometry x="752" y="-150" width="78" height="78" as="geometry" />
        </mxCell>
      </root>
    </mxGraphModel>
  </diagram>
</mxfile>
